<?xml version="1.0" standalone="no"?>
<!DOCTYPE svg PUBLIC "-//W3C//DTD SVG 20010904//EN"
 "http://www.w3.org/TR/2001/REC-SVG-20010904/DTD/svg10.dtd">
<svg version="1.0" xmlns="http://www.w3.org/2000/svg"
 width="377.000000pt" height="377.000000pt" viewBox="0 0 377.000000 377.000000"
 preserveAspectRatio="xMidYMid meet">
<metadata>
Created by potrace 1.14, written by Peter Selinger 2001-2017
</metadata>
<g transform="translate(0.000000,377.000000) scale(0.100000,-0.100000)"
fill="#000000" stroke="none">
<path d="M1655 3755 c-88 -12 -118 -18 -160 -31 -5 -2 -19 -5 -30 -8 -11 -2
-22 -5 -25 -6 -3 -1 -8 -2 -12 -1 -4 0 -20 -4 -35 -11 -15 -6 -31 -11 -35 -10
-4 1 -19 -5 -34 -13 -15 -8 -31 -12 -36 -9 -4 3 -8 0 -8 -7 0 -7 -3 -9 -7 -6
-3 4 -11 2 -18 -3 -6 -5 -20 -11 -31 -13 -10 -2 -68 -29 -129 -60 -124 -64
-147 -78 -157 -92 -5 -6 -8 -6 -8 -1 0 6 -7 1 -15 -10 -8 -10 -15 -15 -15 -10
0 6 -7 1 -15 -10 -8 -10 -15 -16 -15 -11 0 4 -8 -1 -18 -10 -29 -28 -62 -53
-68 -53 -10 0 -244 -225 -244 -235 0 -3 -11 -16 -25 -29 -14 -13 -25 -26 -25
-30 0 -5 -21 -32 -55 -70 -5 -6 -16 -23 -24 -38 -8 -16 -18 -28 -23 -28 -4 0
-8 -4 -8 -10 0 -5 -16 -35 -36 -65 -41 -65 -114 -213 -114 -232 0 -7 -5 -13
-11 -13 -5 0 -8 -4 -5 -8 3 -5 -4 -25 -14 -45 -11 -21 -17 -37 -14 -37 4 0 1
-7 -6 -15 -7 -8 -9 -15 -5 -15 4 0 2 -7 -5 -15 -7 -8 -9 -15 -6 -15 4 0 2 -10
-5 -21 -6 -12 -13 -31 -14 -43 -5 -26 -10 -46 -18 -66 -3 -8 -8 -28 -11 -45
-3 -16 -12 -70 -21 -120 -34 -196 -29 -488 12 -680 8 -38 17 -81 19 -94 3 -14
7 -28 9 -31 2 -4 7 -22 10 -40 3 -19 11 -40 17 -47 6 -7 7 -13 3 -13 -4 0 -2
-7 5 -15 7 -8 9 -15 5 -15 -4 0 -2 -7 5 -15 7 -8 9 -15 5 -15 -4 0 0 -11 9
-25 9 -13 17 -32 19 -42 5 -32 70 -163 80 -163 6 0 7 -3 4 -7 -7 -6 16 -49 71
-138 14 -22 25 -41 24 -42 -1 -2 6 -12 16 -22 31 -35 42 -50 42 -58 0 -5 9
-15 20 -23 11 -8 20 -19 20 -24 0 -10 6 -17 138 -153 50 -51 93 -93 97 -93 3
0 16 -11 29 -25 13 -14 26 -25 30 -25 6 0 37 -24 67 -52 9 -9 20 -14 23 -11 3
3 8 -2 12 -11 3 -9 10 -14 14 -11 4 3 11 -2 14 -11 3 -8 10 -13 15 -9 6 3 13
0 18 -8 10 -16 273 -151 273 -140 0 4 4 4 8 -2 8 -12 99 -46 125 -48 9 -1 17
-5 17 -9 0 -4 8 -7 18 -7 28 0 57 -6 62 -13 3 -3 39 -14 80 -23 54 -12 140
-19 305 -22 234 -5 349 3 457 33 29 8 60 17 68 19 8 2 16 4 18 5 1 2 7 4 12 5
6 1 13 4 18 5 4 1 11 2 15 1 4 -1 20 5 36 14 16 8 31 11 35 8 3 -4 6 -1 6 6 0
7 5 9 11 5 6 -3 14 -2 18 4 4 7 16 13 26 15 36 6 284 138 319 170 11 9 23 17
27 17 4 0 14 6 21 13 7 7 29 24 48 37 19 13 45 34 57 47 12 13 25 23 29 23 8
0 167 163 207 211 55 68 62 78 77 99 8 12 20 28 26 34 5 6 19 27 30 46 10 19
22 37 26 40 4 3 30 50 58 105 29 55 55 105 59 110 4 6 13 28 20 50 8 22 21 56
29 75 17 39 23 57 24 80 1 8 5 18 10 21 5 3 10 17 12 30 2 13 6 31 9 39 3 8
16 62 29 120 21 96 23 130 23 390 0 260 -2 294 -23 390 -13 58 -26 112 -29
120 -3 8 -8 24 -10 35 -3 19 -10 41 -29 90 -4 11 -8 23 -9 28 -2 4 -4 10 -5
15 -1 4 -2 10 -1 15 0 4 -4 7 -10 7 -6 0 -9 6 -6 14 3 8 -1 20 -9 27 -8 6 -12
14 -10 17 7 6 -125 263 -144 282 -3 3 -18 25 -34 49 -34 52 -45 66 -68 89 -10
9 -18 21 -18 26 0 5 -11 21 -24 35 -59 63 -217 218 -246 241 -17 14 -37 31
-45 38 -7 6 -17 12 -22 12 -4 0 -19 12 -32 25 -13 14 -29 25 -36 25 -7 0 -15
4 -17 8 -8 20 -273 162 -303 162 -8 0 -15 5 -15 11 0 5 -4 7 -10 4 -5 -3 -10
-2 -10 2 0 5 -12 10 -27 11 -16 1 -30 7 -31 12 -2 6 -8 8 -13 4 -5 -3 -9 -1
-9 3 0 5 -8 10 -17 11 -32 3 -48 7 -61 16 -7 4 -16 5 -19 2 -3 -3 -11 -2 -17
3 -6 5 -27 12 -46 16 -19 4 -69 13 -110 21 -112 21 -404 26 -525 9z"/>
</g>
</svg>
